<svg xmlns="http://www.w3.org/2000/svg" viewBox="0 0 1200 630" width="1200" height="630">
  <defs>
    <!-- Grid pattern -->
    <pattern id="grid" width="60" height="60" patternUnits="userSpaceOnUse">
      <path d="M 60 0 L 0 0 0 60" fill="none" stroke="rgba(26, 26, 26, 0.08)" stroke-width="1"/>
    </pattern>
    
    <style>
      @import url('https://fonts.googleapis.com/css2?family=Fira+Code:wght@400;600&amp;family=Cormorant+Garamond:ital,wght@0,400;0,500;1,400&amp;display=swap');
      
      .dispatch-id {
        font-family: 'Fira Code', monospace;
        font-size: 14px;
        font-weight: 600;
        letter-spacing: 2px;
        fill: #B08D55;
      }
      
      .article-title {
        font-family: 'Cormorant Garamond', Georgia, serif;
        font-size: 56px;
        font-weight: 500;
        fill: #1A1A1A;
      }
      
      .article-subtitle {
        font-family: 'Cormorant Garamond', Georgia, serif;
        font-size: 24px;
        font-weight: 400;
        font-style: italic;
        fill: rgba(26, 26, 26, 0.6);
      }
      
      .brand-name {
        font-family: 'Fira Code', monospace;
        font-size: 12px;
        font-weight: 600;
        letter-spacing: 4px;
        fill: rgba(26, 26, 26, 0.4);
      }
      
      .corner-label {
        font-family: 'Fira Code', monospace;
        font-size: 11px;
        font-weight: 400;
        fill: rgba(26, 26, 26, 0.3);
      }
    </style>
  </defs>
  
  <!-- Background -->
  <rect width="1200" height="630" fill="#F2F0E9"/>
  
  <!-- Grid overlay -->
  <rect width="1200" height="630" fill="url(#grid)"/>
  
  <!-- Top-left corner bracket -->
  <path d="M 60 50 L 60 90 M 60 50 L 100 50" fill="none" stroke="rgba(26, 26, 26, 0.15)" stroke-width="1"/>
  <text x="70" y="80" class="corner-label">DSP</text>
  
  <!-- Top-right corner bracket -->
  <path d="M 1140 50 L 1140 90 M 1140 50 L 1100 50" fill="none" stroke="rgba(26, 26, 26, 0.15)" stroke-width="1"/>
  <text x="1100" y="80" class="corner-label">-001</text>
  
  <!-- Bottom-left corner bracket -->
  <path d="M 60 580 L 60 540 M 60 580 L 100 580" fill="none" stroke="rgba(26, 26, 26, 0.15)" stroke-width="1"/>
  
  <!-- Bottom-right corner bracket -->
  <path d="M 1140 580 L 1140 540 M 1140 580 L 1100 580" fill="none" stroke="rgba(26, 26, 26, 0.15)" stroke-width="1"/>
  
  <!-- Left histogram bars -->
  <g transform="translate(130, 315)" opacity="1">
    <rect x="0" y="-25" width="8" height="50" fill="rgba(26, 26, 26, 0.06)"/>
    <rect x="12" y="-40" width="8" height="80" fill="rgba(26, 26, 26, 0.06)"/>
    <rect x="24" y="-18" width="8" height="36" fill="rgba(26, 26, 26, 0.06)"/>
    <rect x="36" y="-55" width="8" height="110" fill="rgba(26, 26, 26, 0.06)"/>
    <rect x="48" y="-30" width="8" height="60" fill="rgba(26, 26, 26, 0.06)"/>
    <rect x="60" y="-12" width="8" height="24" fill="rgba(26, 26, 26, 0.06)"/>
    <rect x="72" y="-35" width="8" height="70" fill="rgba(26, 26, 26, 0.06)"/>
  </g>
  
  <!-- Right histogram bars -->
  <g transform="translate(990, 315)" opacity="1">
    <rect x="0" y="-18" width="8" height="36" fill="rgba(26, 26, 26, 0.06)"/>
    <rect x="12" y="-30" width="8" height="60" fill="rgba(26, 26, 26, 0.06)"/>
    <rect x="24" y="-12" width="8" height="24" fill="rgba(26, 26, 26, 0.06)"/>
    <rect x="36" y="-50" width="8" height="100" fill="rgba(26, 26, 26, 0.06)"/>
    <rect x="48" y="-25" width="8" height="50" fill="rgba(26, 26, 26, 0.06)"/>
    <rect x="60" y="-38" width="8" height="76" fill="rgba(26, 26, 26, 0.06)"/>
    <rect x="72" y="-20" width="8" height="40" fill="rgba(26, 26, 26, 0.06)"/>
  </g>
  
  <!-- Content container - centered -->
  <g transform="translate(600, 290)">
    <!-- Dispatch ID -->
    <text x="0" y="-80" text-anchor="middle" class="dispatch-id">DSP-001</text>
    
    <!-- Article Title -->
    <text x="0" y="0" text-anchor="middle" class="article-title">Our Extreme Thoughts</text>
    
    <!-- Subtitle -->
    <text x="0" y="60" text-anchor="middle" class="article-subtitle">What 4.8 million AI conversations reveal about human outliers</text>
  </g>
  
  <!-- Bottom brand -->
  <text x="600" y="560" text-anchor="middle" class="brand-name">PHRONOS</text>
  
  <!-- Small logo next to brand -->
  <g transform="translate(520, 552) scale(0.8)">
    <!-- Serpent Body -->
    <circle cx="0" cy="0" r="11" fill="none" stroke="rgba(26, 26, 26, 0.3)" stroke-width="2" stroke-linecap="round" stroke-dasharray="63.5 5.5" transform="rotate(-32)"/>
    <!-- Serpent Head -->
    <circle cx="5.5" cy="-9.5" r="2.5" fill="rgba(26, 26, 26, 0.3)"/>
    <!-- Core Center (Gold) -->
    <circle cx="0" cy="0" r="2" fill="#B08D55" opacity="0.5"/>
  </g>
</svg>

